<?xml version="1.0" standalone="no"?>
<!DOCTYPE svg PUBLIC "-//W3C//DTD SVG 20010904//EN"
 "http://www.w3.org/TR/2001/REC-SVG-20010904/DTD/svg10.dtd">
<svg version="1.0" xmlns="http://www.w3.org/2000/svg"
 width="460.000000pt" height="460.000000pt" viewBox="0 0 460.000000 460.000000"
 preserveAspectRatio="xMidYMid meet">
<metadata>
Created by potrace 1.14, written by Peter Selinger 2001-2017
</metadata>
<g transform="translate(0.000000,460.000000) scale(0.100000,-0.100000)"
fill="#000000" stroke="none">
<path d="M2195 3629 c-22 -6 -78 -19 -125 -31 -78 -19 -305 -115 -340 -143
-24 -20 -60 -28 -73 -16 -35 28 -217 35 -284 10 -60 -22 -121 -180 -132 -339
l-6 -95 -67 3 c-74 4 -275 -24 -325 -45 -63 -26 -68 -91 -15 -192 l30 -57
-109 -53 c-123 -60 -159 -94 -159 -148 0 -53 43 -100 173 -184 46 -30 49 -34
43 -68 -11 -68 -19 -239 -12 -264 7 -30 100 -79 197 -103 l66 -16 -10 -33 c-9
-32 -12 -33 -81 -44 -88 -13 -142 -34 -157 -62 -11 -21 -8 -114 7 -224 l6 -40
-169 0 c-138 0 -178 -3 -226 -19 -108 -35 -119 -85 -66 -303 l31 -128 -33 -25
c-156 -119 -279 -269 -264 -323 4 -12 43 -58 88 -101 l82 -79 -50 -15 c-27 -8
-62 -25 -77 -39 -39 -37 -44 -73 -17 -148 22 -63 22 -63 3 -96 -16 -27 -29
-35 -69 -44 -50 -10 -50 -10 -53 -53 -3 -38 -1 -42 19 -42 l22 0 -21 -23 c-30
-31 -28 -47 6 -47 18 0 39 12 66 40 21 22 43 40 48 40 5 0 8 6 6 13 -2 12 19
57 32 67 3 3 14 16 23 30 12 18 17 20 17 8 0 -11 6 -15 20 -11 11 3 20 9 20
14 0 5 5 9 11 9 16 0 39 26 39 44 0 9 4 16 9 16 5 0 6 -21 3 -46 -3 -34 -13
-54 -33 -74 -18 -17 -29 -38 -29 -54 0 -15 -7 -41 -16 -57 -8 -17 -14 -33 -11
-35 2 -2 383 -3 846 -2 l841 3 -19 37 c-10 21 -22 50 -26 65 -11 47 -90 155
-161 221 -63 59 -70 63 -111 60 -42 -2 -44 -3 -38 -29 5 -22 2 -29 -15 -34
-19 -6 -21 -12 -15 -41 5 -30 3 -34 -15 -34 -11 0 -20 7 -20 15 0 8 -9 15 -20
15 -18 0 -20 7 -20 75 l0 75 -35 0 c-33 0 -35 -2 -35 -35 0 -19 -4 -35 -10
-35 -5 0 -10 16 -10 35 0 31 -3 35 -26 35 -26 0 -27 -1 -22 -58 3 -31 4 -47 1
-34 -5 27 -23 29 -23 2 0 -18 -7 -20 -65 -20 -58 0 -65 -2 -65 -20 0 -19 -7
-20 -220 -20 l-220 0 0 40 c0 39 -1 40 -35 40 l-35 0 0 70 0 70 -40 0 c-22 0
-40 5 -40 10 0 6 -25 10 -56 10 -46 0 -55 -3 -50 -15 3 -9 0 -15 -9 -15 -21 0
-19 5 17 66 19 32 38 52 45 49 8 -3 13 5 13 20 0 17 6 25 17 25 9 0 13 3 10 7
-4 3 4 21 18 39 14 18 25 39 25 47 0 7 11 24 25 37 14 13 36 46 49 74 24 51
85 126 103 126 5 0 16 12 23 28 8 15 16 31 19 36 2 5 -1 6 -7 2 -8 -5 -12 0
-12 13 0 25 19 38 31 20 8 -12 11 -12 19 1 9 13 11 13 21 0 8 -11 12 -12 16
-2 2 6 9 12 13 12 5 0 20 11 34 25 14 14 35 25 46 25 12 0 28 6 36 14 16 17
19 56 4 56 -5 0 -10 5 -10 10 0 6 32 10 75 10 l75 0 0 -35 c0 -28 4 -35 20
-35 16 0 20 7 20 35 0 21 5 35 13 35 9 0 12 -27 12 -103 0 -93 -2 -106 -27
-151 -16 -27 -28 -59 -28 -72 0 -12 -8 -29 -18 -36 -12 -8 -21 -30 -24 -60 -5
-43 -3 -48 26 -70 34 -25 54 -38 106 -66 153 -81 197 -106 210 -116 8 -7 31
-20 50 -29 78 -40 97 -52 155 -99 113 -93 196 -208 255 -353 l29 -70 912 -3
c859 -2 912 -1 925 15 21 29 17 115 -9 170 -26 57 -67 125 -80 134 -5 4 -11
20 -13 35 -1 16 -9 33 -16 38 -12 7 -12 26 -1 120 7 61 11 126 8 144 -4 19 -2
32 5 32 19 0 120 -114 159 -180 71 -120 105 -324 77 -467 l-9 -43 48 0 48 0
-6 173 c-6 192 -15 230 -88 375 -49 95 -156 211 -228 246 -49 23 -48 22 -91
123 -37 87 -36 85 -26 208 15 189 -14 301 -116 460 -34 52 -50 71 -149 173
-60 63 -113 159 -113 209 0 34 53 106 89 119 11 4 54 34 97 67 72 55 79 64
100 126 19 55 23 87 24 200 0 125 2 134 22 150 32 23 42 71 42 196 0 165 -29
258 -113 359 -48 57 -87 76 -159 76 -56 0 -92 8 -171 36 -45 16 -51 22 -81 83
-25 52 -42 73 -81 99 -117 78 -164 100 -270 127 -96 24 -134 28 -290 31 -102
2 -197 -1 -220 -7z m320 -98 c17 -6 71 -17 120 -26 127 -21 173 -35 225 -71
65 -46 81 -66 78 -103 l-2 -31 -113 5 c-97 5 -113 3 -113 -10 0 -12 -12 -15
-55 -15 -52 0 -55 -1 -55 -25 0 -15 -6 -25 -15 -25 -8 0 -24 -8 -36 -17 -11
-10 -30 -26 -41 -35 -12 -10 -25 -18 -29 -18 -14 0 -69 -104 -69 -130 0 -38
14 -54 43 -46 16 4 29 17 35 36 6 16 16 30 21 30 6 0 11 7 11 15 0 9 21 29 48
46 51 33 79 34 212 9 110 -20 142 -23 149 -12 3 6 19 13 34 16 14 2 31 7 36
10 5 4 21 2 36 -4 21 -8 43 -5 106 17 43 14 79 30 79 35 0 4 25 8 56 8 86 0
132 -28 166 -98 26 -55 48 -116 48 -133 0 -5 -11 -9 -25 -9 -16 0 -25 -6 -25
-15 0 -8 7 -15 15 -15 8 0 15 -9 15 -20 0 -27 28 -25 33 3 3 16 5 13 6 -10 1
-22 -4 -33 -13 -33 -8 0 -17 -7 -20 -16 -9 -25 3 -56 20 -50 9 4 14 -2 14 -15
0 -11 -5 -17 -10 -14 -16 10 -50 -5 -50 -21 0 -8 5 -14 10 -14 6 0 10 -4 10
-9 0 -5 -19 -3 -42 4 -31 9 -48 21 -63 46 -15 26 -27 34 -50 36 -16 0 -25 -1
-18 -4 8 -3 5 -12 -11 -28 -13 -13 -26 -30 -28 -37 -3 -9 -26 -13 -71 -13 -65
0 -68 1 -108 43 -23 23 -50 42 -61 42 -24 0 -70 -24 -88 -45 -8 -10 -39 -33
-69 -52 -69 -44 -143 -55 -190 -27 -17 10 -31 22 -31 26 0 4 -25 8 -55 8 -32
0 -55 -4 -55 -11 0 -5 -31 -41 -70 -79 -38 -38 -70 -73 -70 -77 0 -15 -62 -46
-92 -45 -17 0 -28 -5 -28 -13 0 -16 -42 -27 -67 -18 -61 23 -123 106 -123 165
0 42 -52 73 -86 50 -41 -28 -6 -130 72 -210 30 -30 54 -60 54 -67 0 -19 11
-25 29 -16 14 8 16 2 13 -55 -3 -55 -6 -64 -23 -64 -10 0 -19 -4 -19 -10 0 -5
-9 -10 -20 -10 -12 0 -20 -7 -20 -16 0 -12 -6 -15 -25 -10 -40 10 -85 -18 -85
-54 0 -17 -4 -30 -10 -30 -5 0 -10 -9 -10 -20 0 -11 5 -20 10 -20 6 0 10 -55
10 -145 l0 -145 75 0 75 0 0 -75 0 -75 -110 0 -110 0 0 -35 c0 -19 -4 -35 -10
-35 -5 0 -10 -6 -10 -14 0 -8 -13 -24 -30 -37 -16 -13 -30 -32 -30 -41 0 -20
-4 -21 -37 -12 -13 4 -23 13 -23 20 0 11 -18 14 -75 14 l-75 0 0 -36 c0 -51
-21 -67 -91 -70 -45 -2 -59 1 -59 12 0 8 -7 14 -15 14 -11 0 -15 11 -15 40 0
44 -25 58 -33 18 -3 -16 -5 -13 -6 10 0 18 4 42 9 53 8 15 7 21 -4 25 -8 3
-16 14 -19 25 -7 24 -39 25 -54 0 -7 -11 -26 -22 -43 -26 -16 -4 -30 -13 -30
-21 0 -8 -9 -14 -20 -14 -11 0 -20 -7 -20 -15 0 -8 -9 -15 -20 -15 -11 0 -20
7 -20 15 0 8 5 15 10 15 6 0 10 6 10 14 0 15 -29 29 -51 24 -10 -2 -14 11 -15
51 -1 31 -6 56 -14 61 -10 6 -8 22 10 74 12 36 26 68 31 72 5 3 7 15 3 27 -6
22 -6 22 9 2 9 -11 12 -24 7 -29 -5 -5 -6 -15 -3 -24 4 -10 2 -13 -5 -8 -8 5
-12 -1 -12 -16 0 -33 52 -65 70 -43 6 8 14 32 17 55 5 33 3 40 -11 40 -9 0
-16 5 -16 10 0 6 -9 10 -20 10 -30 0 -26 60 9 134 16 34 32 86 36 116 4 30 15
71 25 90 10 20 21 57 25 84 4 26 10 44 14 40 3 -5 12 -10 19 -12 10 -2 10 2 2
17 -15 29 -13 35 20 69 17 18 30 38 30 45 0 7 9 19 20 27 11 8 20 24 20 35 0
11 9 27 20 35 13 9 18 21 14 33 -3 10 0 24 6 32 8 9 10 46 8 109 -4 95 2 112
29 85 8 -8 17 -7 32 3 17 10 21 23 21 65 0 42 -3 53 -16 53 -19 0 -44 -24 -44
-43 0 -8 -7 -20 -15 -27 -31 -26 -17 16 56 165 16 33 29 67 30 75 0 10 2 11 6
3 2 -7 16 -13 29 -13 17 0 24 6 24 20 0 13 -7 20 -20 20 -24 0 -26 16 -5 36 8
9 15 11 15 5 0 -6 11 -11 25 -11 14 0 25 5 25 10 0 6 -9 10 -20 10 -28 0 -16
21 54 93 56 58 71 66 79 45 3 -7 6 -4 6 8 1 11 12 27 26 34 14 7 25 17 25 21
0 4 10 5 22 1 13 -3 19 -1 15 5 -4 6 4 18 17 26 26 17 130 55 186 68 19 4 53
13 75 19 135 39 304 48 380 21z m-957 -169 l22 -7 -21 -40 c-12 -22 -34 -56
-48 -75 -33 -42 -65 -104 -75 -142 -3 -16 -24 -65 -46 -110 -22 -46 -40 -88
-40 -94 0 -7 -7 -25 -15 -40 -8 -16 -15 -39 -15 -51 0 -12 -9 -38 -20 -58 -11
-20 -20 -42 -20 -50 0 -8 -7 -15 -16 -15 -14 0 -15 -7 -10 -39 4 -26 2 -41 -5
-43 -7 -2 -13 -31 -15 -66 -1 -34 -7 -77 -13 -95 -5 -17 -19 -62 -30 -98 -12
-37 -21 -77 -21 -90 0 -13 -7 -32 -15 -42 -7 -11 -16 -38 -20 -60 -13 -84 -38
-158 -56 -168 -11 -5 -46 -7 -84 -3 -50 5 -76 14 -105 35 -48 35 -50 57 -20
203 24 118 21 123 -80 191 -71 46 -120 92 -120 111 0 26 100 90 186 118 28 9
63 29 78 44 l26 28 -47 92 c-33 64 -44 95 -36 103 24 24 121 39 258 39 77 0
149 3 161 6 19 5 22 17 32 154 18 229 41 271 146 269 33 -1 71 -4 84 -7z
m1572 -152 c0 -18 -67 -23 -92 -6 -22 15 -21 16 35 16 31 0 57 -4 57 -10z
m370 -470 c0 -5 -2 -10 -4 -10 -3 0 -8 5 -11 10 -3 6 -1 10 4 10 6 0 11 -4 11
-10z m-464 -35 c45 -69 157 -94 239 -55 22 11 34 19 26 20 -8 0 -12 3 -8 6 3
3 33 -7 66 -22 73 -35 76 -42 76 -179 -1 -83 -4 -107 -23 -140 -25 -46 -64
-97 -58 -75 2 8 7 29 9 45 l6 30 -52 -3 -52 -4 3 76 c4 65 2 76 -12 76 -9 0
-16 -8 -16 -20 0 -11 -4 -20 -10 -20 -5 0 -10 -7 -10 -15 0 -12 -15 -15 -75
-15 -68 0 -75 -2 -75 -20 0 -19 -7 -20 -165 -20 -140 0 -165 2 -165 15 0 10
-11 15 -35 15 -28 0 -35 4 -35 20 0 13 -7 20 -20 20 -16 0 -20 -7 -20 -35 0
-33 -2 -35 -35 -35 -29 0 -35 4 -35 21 0 11 4 18 8 15 11 -6 38 11 30 19 -11
12 -43 12 -50 2 -4 -6 -36 -13 -72 -15 -56 -4 -66 -2 -66 12 0 12 10 16 40 16
22 0 40 5 40 10 0 6 7 10 16 10 11 0 14 6 8 23 -4 12 -10 24 -15 27 -4 3 11
29 33 58 38 48 44 52 82 52 22 -1 51 -7 64 -14 47 -26 238 24 261 68 11 21 57
55 73 56 4 0 15 -11 24 -25z m-1689 -187 c-3 -8 -6 -5 -6 6 -1 11 2 17 5 13 3
-3 4 -12 1 -19z m1203 -118 c0 -5 -7 -10 -15 -10 -8 0 -15 5 -15 10 0 6 7 10
15 10 8 0 15 -4 15 -10z m-280 -35 c0 -10 -10 -15 -31 -15 -17 0 -37 7 -45 15
-14 13 -10 15 30 15 34 0 46 -4 46 -15z m-273 -387 c-3 -8 -6 -5 -6 6 -1 11 2
17 5 13 3 -3 4 -12 1 -19z m1154 -259 c4 -7 12 -5 21 4 13 13 23 7 86 -52 40
-36 72 -70 72 -75 0 -4 11 -17 25 -28 46 -36 104 -134 120 -200 17 -74 19
-102 5 -93 -5 3 -10 14 -10 23 0 9 -16 49 -35 87 l-35 70 6 -51 c4 -33 2 -54
-5 -58 -6 -4 -11 -24 -11 -44 0 -20 -8 -66 -16 -102 -9 -36 -16 -74 -16 -84 1
-11 -10 -44 -24 -75 -35 -78 -41 -86 -54 -83 -7 1 -21 -8 -32 -20 -14 -16 -22
-19 -25 -10 -6 17 -23 15 -23 -3 0 -12 -14 -15 -65 -15 -36 0 -65 4 -65 9 0 5
-27 7 -60 4 -69 -7 -136 17 -126 44 4 9 1 22 -5 29 -9 11 -8 15 4 20 9 3 21
22 28 41 6 20 41 66 79 105 76 77 100 128 100 213 0 53 -12 75 -41 75 -17 0
-28 -34 -45 -140 -6 -36 -14 -45 -37 -41 -4 0 -6 -3 -5 -8 3 -7 -59 -85 -100
-127 -7 -7 -27 -45 -46 -83 -52 -110 -33 -157 82 -201 29 -11 57 -20 63 -20 6
0 7 -5 4 -10 -13 -21 61 -80 118 -94 15 -3 27 -13 27 -22 0 -11 6 -15 20 -11
16 4 20 0 20 -19 0 -17 -6 -24 -20 -24 -13 0 -20 7 -20 19 0 12 -9 20 -24 23
l-24 5 5 -97 6 -97 -64 -7 c-35 -4 -67 -13 -71 -19 -5 -8 -8 -6 -8 6 0 9 -4
17 -10 17 -5 0 -10 -7 -10 -15 0 -12 -14 -15 -65 -15 -58 0 -65 -2 -65 -20 0
-18 -7 -20 -75 -20 -68 0 -75 -2 -75 -20 0 -18 -7 -20 -70 -20 l-70 0 0 40 0
40 -75 0 -75 0 0 -30 c0 -23 -4 -30 -20 -30 -15 0 -20 7 -20 25 0 16 -6 25
-15 25 -8 0 -15 -7 -15 -15 0 -8 -4 -15 -10 -15 -5 0 -10 9 -10 20 0 13 -7 20
-20 20 -11 0 -23 7 -26 15 -4 8 -15 15 -25 15 -12 0 -19 7 -19 20 0 16 -7 20
-35 20 l-35 0 0 50 c0 31 -4 50 -12 50 -6 0 -8 3 -4 8 4 4 13 7 19 7 6 0 16
10 23 22 6 13 13 20 17 17 9 -10 29 37 24 57 -3 11 0 19 8 19 7 0 18 7 25 15
7 8 21 15 32 15 11 0 33 13 49 29 28 28 29 34 29 116 0 72 -4 91 -20 112 -11
14 -18 29 -15 33 3 5 -13 23 -35 40 -22 17 -40 40 -40 51 0 10 -7 19 -15 19
-12 0 -15 13 -15 55 0 30 -4 55 -10 55 -5 0 -10 -7 -10 -16 0 -18 -27 -48 -33
-37 -12 23 -16 43 -7 38 6 -3 10 -4 10 -1 0 2 3 11 6 20 3 9 1 16 -5 16 -22 0
-68 62 -63 87 2 12 8 23 13 23 5 0 9 20 9 45 l0 45 65 0 65 0 0 70 0 70 50 0
c28 0 50 -4 50 -10 0 -5 9 -10 20 -10 15 0 20 -7 20 -25 0 -24 2 -25 65 -25
58 0 65 2 65 20 0 11 5 20 10 20 6 0 10 6 10 14 0 21 23 26 130 26 104 0 188
12 230 34 14 7 41 13 59 15 19 1 36 3 37 4 7 7 200 -6 205 -14z m-2147 -16
c-4 -16 -17 -51 -30 -80 -13 -29 -31 -76 -41 -105 l-17 -53 -18 75 c-9 41 -17
96 -18 122 0 47 0 47 38 53 20 4 42 8 47 10 34 11 45 5 39 -22z m72 -49 c-9
-8 -11 -9 -6 -2 6 7 11 21 11 33 1 18 2 18 6 1 3 -10 -2 -25 -11 -32z m46 -79
c4 -17 1 -25 -8 -25 -8 0 -14 11 -14 25 0 14 4 25 9 25 5 0 11 -11 13 -25z
m161 -10 c4 -8 3 -16 -1 -19 -4 -3 -9 4 -9 15 -2 23 3 25 10 4z m-450 -152
c21 -3 41 -11 43 -18 3 -7 -9 -33 -26 -58 -17 -25 -37 -62 -46 -83 -12 -29
-18 -34 -25 -23 -6 10 -9 2 -9 -26 0 -22 -7 -48 -14 -58 -14 -18 -14 -18 -19
0 -3 11 -5 6 -6 -13 -2 -68 -206 -408 -331 -551 l-35 -40 -47 36 c-115 89
-147 117 -148 129 0 15 196 214 258 261 65 50 66 56 32 167 -17 54 -36 129
-42 167 -15 93 -9 99 124 107 147 10 247 11 291 3z m1174 -230 c-3 -3 -13 1
-21 10 -8 8 -12 17 -9 20 3 3 12 -1 20 -9 9 -8 13 -18 10 -21z m1 -40 c-4 -46
1 -53 37 -53 34 0 35 -1 35 -40 0 -22 5 -40 10 -40 6 0 10 8 10 18 0 29 47 26
74 -5 17 -20 22 -36 20 -66 -3 -50 -15 -57 -81 -52 -50 4 -53 2 -53 -19 0 -12
-8 -45 -17 -72 l-17 -49 -8 33 c-5 18 -15 32 -23 32 -13 0 -15 24 -15 143 0
78 3 152 6 165 7 26 24 30 22 5z m1483 -370 c-8 -17 -6 -18 25 -15 29 4 34 1
34 -17 0 -17 -6 -21 -30 -21 -39 0 -59 35 -39 71 7 14 14 19 16 12 3 -7 0 -20
-6 -30z m-94 -108 c-4 -8 -11 -15 -17 -15 -7 0 -7 6 0 21 13 23 26 19 17 -6z
m193 -18 c0 -57 -12 -107 -26 -107 -21 0 -25 17 -9 33 9 10 15 34 15 67 0 32
4 49 10 45 6 -3 10 -21 10 -38z m-398 -19 c-9 -9 -12 -4 -11 23 0 32 1 33 11
11 8 -17 8 -26 0 -34z m-1142 -33 c0 -17 -2 -18 -24 -9 -23 9 -20 24 4 24 11
0 20 -7 20 -15z m-1658 -167 c-7 -7 -12 -8 -12 -2 0 6 3 14 7 17 3 4 9 5 12 2
2 -3 -1 -11 -7 -17z m-129 -15 c-8 -21 -55 -83 -63 -83 -3 0 -11 13 -17 30
-10 26 -8 31 11 44 12 8 33 16 47 19 13 2 25 5 26 6 1 0 -1 -7 -4 -16z m173
-30 c-3 -3 -13 -2 -23 1 -17 7 -17 8 2 22 18 13 20 13 23 -1 2 -9 1 -19 -2
-22z m574 -193 c0 -19 -7 -20 -104 -20 -113 0 -136 4 -136 26 0 11 24 14 120
14 113 0 120 -1 120 -20z"/>
<path d="M1982 3301 c2 -16 15 -33 35 -46 18 -11 32 -24 33 -30 0 -5 27 -25
61 -43 33 -19 73 -47 88 -63 33 -34 46 -36 61 -8 9 16 8 23 -2 32 -8 7 -33 35
-56 63 -23 29 -58 59 -77 68 -19 9 -35 21 -35 26 0 10 -63 28 -93 27 -13 0
-17 -7 -15 -26z"/>
<path d="M1951 3228 c0 -10 -8 -18 -16 -18 -9 0 -27 -12 -40 -26 -20 -21 -25
-38 -25 -77 0 -44 2 -49 20 -44 10 3 20 1 22 -3 9 -24 288 -63 288 -41 0 6 12
11 28 12 15 0 21 3 15 6 -7 2 -13 11 -13 19 0 8 -7 14 -15 14 -8 0 -15 6 -15
13 0 8 -11 24 -24 36 -35 32 -155 91 -187 91 -18 0 -29 6 -32 18 -4 16 -5 16
-6 0z m43 -74 c20 -8 21 -30 2 -37 -17 -7 -40 18 -31 33 7 12 8 12 29 4z"/>
<path d="M3292 3127 c-23 -11 -36 -42 -30 -74 3 -15 14 -18 71 -20 63 -1 86 8
52 21 -22 8 -18 31 8 50 12 9 17 14 10 11 -6 -3 -17 0 -25 7 -17 16 -56 19
-86 5z"/>
<path d="M2565 3038 c-40 -23 -46 -35 -33 -62 9 -20 19 -26 43 -26 18 0 46 -3
63 -6 27 -5 32 -2 46 25 21 40 9 66 -35 75 -44 8 -61 7 -84 -6z"/>
<path d="M1230 1931 c0 -31 4 -40 21 -44 14 -4 23 1 31 18 13 29 -5 65 -32 65
-17 0 -20 -7 -20 -39z"/>
<path d="M1940 1960 c0 -5 -9 -10 -20 -10 -16 0 -20 -7 -20 -30 0 -33 21 -40
46 -16 16 17 19 66 4 66 -5 0 -10 -4 -10 -10z"/>
<path d="M1830 1710 c0 -39 1 -40 35 -40 34 0 35 1 35 40 0 39 -1 40 -35 40
-34 0 -35 -1 -35 -40z"/>
<path d="M3370 2570 c0 -13 -7 -20 -20 -20 -11 0 -20 7 -20 15 0 24 -27 18
-34 -7 -3 -13 -6 -53 -6 -90 l0 -68 31 0 c37 0 59 20 59 54 0 23 -4 26 -35 26
-19 0 -35 5 -35 10 0 6 11 10 25 10 17 0 25 6 25 18 0 14 2 15 10 2 7 -11 10
-4 10 28 0 23 -2 42 -5 42 -3 0 -5 -9 -5 -20z"/>
<path d="M2100 925 c0 -8 5 -15 10 -15 6 0 10 7 10 15 0 8 -4 15 -10 15 -5 0
-10 -7 -10 -15z"/>
<path d="M714 885 c-16 -12 -17 -14 -3 -15 9 0 19 7 23 15 7 19 5 19 -20 0z"/>
<path d="M663 765 c4 -5 0 -16 -9 -26 -22 -25 -16 -115 8 -111 21 3 88 70 88
87 0 23 -26 45 -60 51 -19 4 -32 3 -27 -1z"/>
<path d="M4573 626 c-29 -36 -30 -95 -4 -127 11 -13 22 -21 26 -18 3 4 5 44 3
90 l-3 84 -22 -29z"/>
<path d="M1460 506 c0 -9 30 -14 35 -6 4 6 -3 10 -14 10 -12 0 -21 -2 -21 -4z"/>
<path d="M1566 445 c-3 -8 -1 -15 4 -15 6 0 10 7 10 15 0 8 -2 15 -4 15 -2 0
-6 -7 -10 -15z"/>
<path d="M4530 331 c-52 -16 -90 -42 -96 -66 -8 -34 3 -90 28 -139 l20 -40
-36 -33 c-39 -36 -62 -41 -92 -18 -25 19 -58 19 -95 -1 -20 -10 -34 -12 -42
-6 -19 16 -89 32 -113 26 -12 -3 -26 -16 -33 -30 l-11 -24 228 0 227 0 43 44
42 44 0 126 c0 124 0 126 -22 125 -13 0 -34 -4 -48 -8z m43 -73 c5 -15 -30
-88 -42 -88 -11 0 -21 25 -21 55 0 35 52 61 63 33z"/>
</g>
</svg>
